HIERARCHY
ROOT Hips
{
    OFFSET 0.000000 0.000000 0.000000
    CHANNELS 6 Xposition Yposition Zposition Zrotation Xrotation Yrotation
    JOINT Spine
    {
        OFFSET -0.000000 8.339920 0.000000
        CHANNELS 3 Zrotation Xrotation Yrotation
        JOINT Spine1
        {
            OFFSET -0.000000 25.214485 0.000000
            CHANNELS 3 Zrotation Xrotation Yrotation
            JOINT Neck
            {
                OFFSET -0.000000 25.110935 2.282812
                CHANNELS 3 Zrotation Xrotation Yrotation
                JOINT Head
                {
                    OFFSET -0.000000 14.238888 -2.034127
                    CHANNELS 3 Zrotation Xrotation Yrotation
                    End Site
                    {
                        OFFSET -0.000000 25.426584 0.000000
                    }
                }
            }
            JOINT LeftShoulder
            {
                OFFSET 4.025024 23.158985 -0.185822
                CHANNELS 3 Zrotation Xrotation Yrotation
                JOINT LeftArm
                {
                    OFFSET 11.674057 0.000000 0.000000
                    CHANNELS 3 Zrotation Xrotation Yrotation
                    JOINT LeftForeArm
                    {
                        OFFSET 31.688633 0.000000 0.000000
                        CHANNELS 3 Zrotation Xrotation Yrotation
                        JOINT LeftHand
                        {
                            OFFSET 29.704493 0.000000 0.000000
                            CHANNELS 3 Zrotation Xrotation Yrotation
                            End Site
                            {
                                OFFSET 15.255952 0.000000 0.000000
                            }
                        }
                    }
                }
            }
            JOINT RightShoulder
            {
                OFFSET -4.099539 23.158985 -0.185822
                CHANNELS 3 Zrotation Xrotation Yrotation
                JOINT RightArm
                {
                    OFFSET -11.674057 0.000000 0.000000
                    CHANNELS 3 Zrotation Xrotation Yrotation
                    JOINT RightForeArm
                    {
                        OFFSET -31.688633 0.000000 0.000000
                        CHANNELS 3 Zrotation Xrotation Yrotation
                        JOINT RightHand
                        {
                            OFFSET -29.704493 0.000000 0.000000
                            CHANNELS 3 Zrotation Xrotation Yrotation
                            End Site
                            {
                                OFFSET -15.255952 0.000000 0.000000
                            }
                        }
                    }
                }
            }
        }
    }
    JOINT LeftUpLeg
    {
        OFFSET 10.170634 0.000000 0.000000
        CHANNELS 3 Zrotation Xrotation Yrotation
        JOINT LeftLeg
        {
            OFFSET -0.000000 -41.352962 0.000000
            CHANNELS 3 Zrotation Xrotation Yrotation
            JOINT LeftFoot
            {
                OFFSET -0.000000 -47.535004 0.000000
                CHANNELS 3 Zrotation Xrotation Yrotation
                JOINT LeftToeBase
                {
                    OFFSET -0.000000 -6.610912 15.255952
                    CHANNELS 3 Zrotation Xrotation Yrotation
                    End Site
                    {
                        OFFSET -0.000000 0.000000 4.068254
                    }
                }
            }
        }
    }
    JOINT RightUpLeg
    {
        OFFSET -10.170634 0.000000 0.000000
        CHANNELS 3 Zrotation Xrotation Yrotation
        JOINT RightLeg
        {
            OFFSET -0.000000 -41.352962 0.000000
            CHANNELS 3 Zrotation Xrotation Yrotation
            JOINT RightFoot
            {
                OFFSET -0.000000 -47.535004 0.000000
                CHANNELS 3 Zrotation Xrotation Yrotation
                JOINT RightToeBase
                {
                    OFFSET -0.000000 -6.610912 15.255952
                    CHANNELS 3 Zrotation Xrotation Yrotation
                    End Site
                    {
                        OFFSET -0.000000 0.000000 4.068254
                    }
                }
            }
        }
    }
}
MOTION
Frames:    11
Frame Time:    0.008333
23.395374    95.632774    38.675446    -8.888268    3.243338    88.829422    -0.547722    -6.385975    0.620068    -2.014482    2.186748    0.689213    -5.237177    18.605438    -10.480502    10.068294    -10.659942    -8.689466    7.076293    5.469123    -10.013331    -62.302170    59.274727    -11.834348    10.784870    -11.116747    -28.288750    -26.107643    -8.338690    -0.396549    -10.653130    -0.555294    4.456528    50.784931    74.081200    29.988544    -4.331796    -9.466614    23.409971    1.057803    -8.529278    5.553089    1.283132    -15.535926    0.665537    -2.927371    13.692137    8.430213    -12.034264    -11.098996    4.639489    0.000000    0.000000    0.000000    -0.605637    -9.965356    5.670088    -2.492920    1.090091    -4.149253    14.887126    -9.549567    -8.322357    0.000000    0.000000    0.000000    
23.260406    95.543175    38.646317    -8.893441    3.305657    88.444092    -0.428056    -6.544479    0.844319    -2.149855    2.294472    0.911841    -5.263017    18.486164    -10.476778    9.996788    -10.766480    -8.687702    6.935606    5.248127    -9.805173    -62.352180    59.111691    -11.560040    11.076802    -11.173375    -28.705860    -25.968489    -8.277270    -0.409203    -10.820827    -0.768362    4.438067    51.396618    74.086266    29.308376    -4.324457    -9.636701    23.665449    0.794492    -8.703911    5.563062    1.390055    -15.640190    1.021446    -3.081301    14.987705    8.210831    -11.365763    -11.980059    4.858569    0.000000    0.000000    0.000000    -0.743851    -10.008963    5.708376    -2.304992    0.901747    -3.855371    14.794318    -9.848808    -8.240901    0.000000    0.000000    0.000000    
23.131374    95.436409    38.621624    -8.849114    3.318892    88.015762    -0.288278    -6.726871    1.069229    -2.225732    2.569489    1.136093    -5.386034    18.218081    -10.440329    10.054145    -10.734022    -8.627798    6.812954    5.180902    -9.605330    -62.186569    58.666370    -11.622178    11.312913    -11.232658    -29.034243    -25.934566    -8.218155    -0.515923    -10.960096    -1.074232    4.435316    51.593807    74.326027    28.967316    -4.486841    -9.803061    23.846823    0.413133    -8.848082    5.546646    1.574550    -15.655062    1.408090    -3.298303    16.230885    8.102459    -10.842057    -12.878234    4.867635    0.000000    0.000000    0.000000    -0.723653    -10.061967    5.440781    -2.297358    0.767273    -3.684122    14.938830    -10.052526    -7.666097    0.000000    0.000000    0.000000    
22.970844    95.322639    38.602169    -8.910464    3.294650    87.584480    -0.135262    -6.988597    1.260966    -2.249592    2.837857    1.325034    -5.709596    17.737583    -10.399175    10.314964    -10.302598    -8.541524    6.478063    4.963424    -9.317173    -62.102203    58.297607    -11.444153    11.598211    -11.293123    -29.289869    -25.952108    -8.146754    -0.651594    -11.082994    -1.340608    4.544150    52.369942    74.097206    28.101171    -4.498408    -9.858329    23.947226    0.171011    -8.908525    5.606618    1.793894    -15.775320    1.801394    -3.499482    17.424789    7.984489    -10.367827    -13.719296    4.710162    0.000000    0.000000    0.000000    -0.678611    -10.309771    5.541321    -2.227862    0.813259    -3.487191    14.890495    -10.411101    -7.413987    0.000000    0.000000    0.000000    
22.820292    95.211792    38.576828    -8.860345    3.197055    87.057961    0.054677    -7.163937    1.438474    -2.098558    3.158397    1.493009    -5.999557    17.510126    -10.241439    10.220158    -10.352487    -8.385262    6.020238    4.936863    -9.076748    -61.879635    57.756828    -11.387197    11.756669    -11.444424    -29.541069    -25.432922    -8.204223    -0.783893    -11.273848    -1.541683    4.700877    52.491802    73.759232    27.865585    -4.460494    -9.741723    23.916601    -0.308041    -8.824618    5.846862    2.079644    -15.701606    2.177813    -3.717862    18.472216    7.648848    -9.980918    -14.447987    4.690483    0.000000    0.000000    0.000000    -0.551144    -10.502662    5.821697    -2.136812    0.961525    -3.409660    14.786217    -10.740520    -7.115888    0.000000    0.000000    0.000000    
22.714788    95.084656    38.580757    -8.737187    3.034293    86.696465    0.290673    -7.376773    1.541928    -2.089689    3.612826    1.589126    -6.074848    17.355446    -10.190862    10.098999    -10.457561    -8.343237    5.680680    4.836275    -8.844902    -61.678688    57.170300    -11.413801    11.837840    -11.561573    -29.575882    -25.223791    -8.268590    -0.920147    -11.156215    -1.621931    4.862154    51.857903    73.531921    28.223845    -4.424775    -9.855665    23.756126    -0.639720    -8.971704    6.250103    2.390530    -15.508676    2.439120    -3.942388    19.410807    7.099602    -9.648278    -15.057802    4.809168    0.000000    0.000000    0.000000    -0.344598    -10.565980    5.856198    -2.099097    1.115519    -3.194096    14.631544    -11.135714    -6.866021    0.000000    0.000000    0.000000    
22.562141    94.974388    38.557236    -8.688068    2.873615    86.201324    0.474960    -7.554453    1.691000    -1.890570    3.975104    1.725327    -6.438140    17.014093    -10.010380    10.207615    -10.217443    -8.133304    5.208904    4.865746    -8.607301    -61.284943    56.534004    -11.677552    11.824000    -11.708323    -29.517384    -24.537434    -8.383696    -1.147555    -11.225513    -1.680378    5.048690    51.546001    73.090805    28.390125    -4.362178    -9.845951    23.562042    -1.386351    -9.020216    6.028701    2.651527    -15.353980    2.765933    -4.054679    20.142992    6.868459    -9.409396    -15.397079    4.654378    0.000000    0.000000    0.000000    -0.113984    -10.880596    5.741795    -2.055575    1.495762    -2.773428    14.462065    -11.448179    -6.557021    0.000000    0.000000    0.000000    
22.441090    94.852257    38.558392    -8.575256    2.631793    85.754730    0.701761    -7.726477    1.785258    -1.682078    4.389575    1.802379    -6.761056    16.785919    -9.853798    10.246295    -10.103606    -7.958446    4.787659    4.878151    -8.432631    -61.014011    55.726223    -11.912795    11.611453    -11.864274    -29.282829    -23.858242    -8.552787    -1.514845    -11.282969    -1.762428    5.275208    51.424828    72.483040    28.431942    -4.154040    -9.694909    23.158909    -1.802825    -8.957106    6.580393    2.981080    -15.065818    3.051415    -4.195053    20.707735    6.410694    -9.323211    -15.672978    4.694472    0.000000    0.000000    0.000000    0.217898    -11.060442    5.800852    -2.043832    1.829529    -2.542985    14.253447    -11.715555    -6.327922    0.000000    0.000000    0.000000    
22.327387    94.735397    38.573402    -8.436056    2.357563    85.409180    0.918331    -7.843699    1.846117    -1.534374    4.776053    1.847208    -6.795465    16.592121    -9.776446    10.108531    -10.061874    -7.900297    4.614392    4.856153    -8.238997    -60.878555    55.142269    -12.249872    11.415030    -12.039058    -28.937855    -23.121830    -8.792368    -1.686786    -11.226529    -1.831761    5.408218    50.956730    72.134331    28.786047    -4.097186    -9.611767    22.625103    -2.220319    -8.939773    7.158286    3.306455    -14.719125    3.220823    -4.324334    21.094782    6.010597    -9.168056    -15.822875    4.698524    0.000000    0.000000    0.000000    0.572953    -11.196425    5.869112    -2.031651    2.174998    -2.398680    14.027501    -11.933602    -6.141270    0.000000    0.000000    0.000000    
22.192209    94.617500    38.577702    -8.295264    2.090623    85.142014    1.092157    -7.936335    1.817626    -1.305974    5.172030    1.800936    -7.196837    16.450226    -9.560085    10.423648    -10.071981    -7.593296    4.479530    4.813416    -8.049786    -60.848381    54.580143    -12.556322    11.110161    -12.354588    -28.577229    -22.226563    -9.211997    -1.832148    -11.339561    -1.977087    5.456964    50.447056    71.797325    29.397772    -3.863275    -9.668201    22.066710    -3.256996    -9.122101    7.020661    3.573224    -14.326483    3.208224    -4.432738    21.266638    5.462038    -9.152208    -15.868982    4.966311    0.000000    0.000000    0.000000    0.892016    -11.363973    5.871983    -1.999737    2.572476    -2.163891    13.773148    -12.164414    -6.051773    0.000000    0.000000    0.000000    
22.096367    94.490280    38.606113    -8.049886    1.721057    84.812927    1.288369    -7.913141    1.844637    -0.985366    5.518631    1.803066    -7.182302    16.396849    -9.383366    10.077574    -10.270107    -7.467074    4.303250    4.703294    -7.948755    -60.893784    54.229900    -12.739011    10.831649    -12.758147    -28.096638    -21.850859    -9.706618    -2.030853    -11.521261    -2.059178    5.485901    50.003246    71.573502    29.978399    -3.729356    -9.689683    21.397484    -3.938238    -9.245445    7.385887    3.946976    -13.675558    3.257024    -4.542880    21.090546    5.440351    -9.403372    -15.754163    4.750462    0.000000    0.000000    0.000000    1.344878    -11.425178    6.129846    -1.976943    3.027337    -2.158247    13.567395    -12.379313    -5.943887    0.000000    0.000000    0.000000    
